<?xml version="1.0" encoding="UTF-8"?>
<svg width="248px" height="153px" viewBox="0 0 248 153" version="1.1" xmlns="http://www.w3.org/2000/svg" xmlns:xlink="http://www.w3.org/1999/xlink">
    <!-- Generator: Sketch 41.2 (35397) - http://www.bohemiancoding.com/sketch -->
    <title>Features</title>
    <desc>Created with Sketch.</desc>
    <defs>
        <path d="M6.91978182,6.00266846 L4.65882353,3.17647059 L5.16253706e-14,9 L6.98823529,9 L18,9 L11.3294118,0.156862745 L6.91978182,6.00266846 Z M6.71764706,2.45098039 C7.6532824,2.45098039 8.41176471,1.67845212 8.41176471,0.725490196 C8.41176471,-0.227471725 7.6532824,-1 6.71764706,-1 C5.78201172,-1 5.02352941,-0.227471725 5.02352941,0.725490196 C5.02352941,1.67845212 5.78201172,2.45098039 6.71764706,2.45098039 Z" id="path-1"></path>
        <mask id="mask-2" maskContentUnits="userSpaceOnUse" maskUnits="objectBoundingBox" x="0" y="0" width="18" height="8.84313725" fill="white">
            <use xlink:href="#path-1"></use>
        </mask>
        <path d="M6.91978182,6.00266846 L4.65882353,3.17647059 L5.16253706e-14,9 L6.98823529,9 L18,9 L11.3294118,0.156862745 L6.91978182,6.00266846 Z M6.71764706,2.45098039 C7.6532824,2.45098039 8.41176471,1.67845212 8.41176471,0.725490196 C8.41176471,-0.227471725 7.6532824,-1 6.71764706,-1 C5.78201172,-1 5.02352941,-0.227471725 5.02352941,0.725490196 C5.02352941,1.67845212 5.78201172,2.45098039 6.71764706,2.45098039 Z" id="path-3"></path>
        <mask id="mask-4" maskContentUnits="userSpaceOnUse" maskUnits="objectBoundingBox" x="0" y="0" width="18" height="8.84313725" fill="white">
            <use xlink:href="#path-3"></use>
        </mask>
        <path d="M6.91978182,6.00266846 L4.65882353,3.17647059 L5.16253706e-14,9 L6.98823529,9 L18,9 L11.3294118,0.156862745 L6.91978182,6.00266846 Z M6.71764706,2.45098039 C7.6532824,2.45098039 8.41176471,1.67845212 8.41176471,0.725490196 C8.41176471,-0.227471725 7.6532824,-1 6.71764706,-1 C5.78201172,-1 5.02352941,-0.227471725 5.02352941,0.725490196 C5.02352941,1.67845212 5.78201172,2.45098039 6.71764706,2.45098039 Z" id="path-5"></path>
        <mask id="mask-6" maskContentUnits="userSpaceOnUse" maskUnits="objectBoundingBox" x="0" y="0" width="18" height="8.84313725" fill="white">
            <use xlink:href="#path-5"></use>
        </mask>
        <path d="M6.91978182,6.00266846 L4.65882353,3.17647059 L5.16253706e-14,9 L6.98823529,9 L18,9 L11.3294118,0.156862745 L6.91978182,6.00266846 Z M6.71764706,2.45098039 C7.6532824,2.45098039 8.41176471,1.67845212 8.41176471,0.725490196 C8.41176471,-0.227471725 7.6532824,-1 6.71764706,-1 C5.78201172,-1 5.02352941,-0.227471725 5.02352941,0.725490196 C5.02352941,1.67845212 5.78201172,2.45098039 6.71764706,2.45098039 Z" id="path-7"></path>
        <mask id="mask-8" maskContentUnits="userSpaceOnUse" maskUnits="objectBoundingBox" x="0" y="0" width="18" height="8.84313725" fill="white">
            <use xlink:href="#path-7"></use>
        </mask>
    </defs>
    <g id="Page-1" stroke="none" stroke-width="1" fill="none" fill-rule="evenodd">
        <g id="Features" transform="translate(0.000000, -39.000000)">
            <g transform="translate(0.000000, 39.000000)">
                <rect id="Rectangle-2-Copy-12" fill="#C800FF" opacity="0.588485054" x="0" y="0" width="248" height="153"></rect>
                <rect id="Rectangle-171" fill="#FFFFFF" x="39" y="25" width="48" height="42"></rect>
                <g id="Image-Icon-1x" transform="translate(54.000000, 41.000000)" stroke="#555555" stroke-width="0.8" fill="#EAE6D5">
                    <g transform="translate(0.000000, 2.000000)" id="Image-Icon">
                        <use mask="url(#mask-2)" xlink:href="#path-1"></use>
                    </g>
                </g>
                <rect id="Rectangle-174-Copy-6" fill="#FFFFFF" x="161" y="75" width="48" height="5" rx="2"></rect>
                <rect id="Rectangle-174-Copy-9" fill="#FFFFFF" x="100" y="75" width="48" height="5" rx="2"></rect>
                <rect id="Rectangle-174-Copy-12" fill="#FFFFFF" x="39" y="75" width="48" height="5" rx="2"></rect>
                <rect id="Rectangle-183" fill="#7ED321" x="103" y="120" width="45" height="9" rx="2"></rect>
                <rect id="Rectangle-174-Copy-7" fill="#FFFFFF" x="166" y="84" width="38" height="5" rx="2"></rect>
                <rect id="Rectangle-174-Copy-10" fill="#FFFFFF" x="105" y="84" width="38" height="5" rx="2"></rect>
                <rect id="Rectangle-174-Copy-13" fill="#FFFFFF" x="44" y="84" width="38" height="5" rx="2"></rect>
                <rect id="Rectangle-174-Copy-8" fill="#FFFFFF" x="169" y="93" width="32" height="5" rx="2"></rect>
                <rect id="Rectangle-174-Copy-11" fill="#FFFFFF" x="108" y="93" width="32" height="5" rx="2"></rect>
                <rect id="Rectangle-174-Copy-14" fill="#FFFFFF" x="47" y="93" width="32" height="5" rx="2"></rect>
                <rect id="Rectangle-171-Copy" fill="#FFFFFF" x="100" y="25" width="48" height="42"></rect>
                <g id="Image-Icon-1x-Copy" transform="translate(115.000000, 41.000000)" stroke="#555555" stroke-width="0.8" fill="#EAE6D5">
                    <g id="Image-Icon-1x" transform="translate(0.000000, 2.000000)">
                        <use id="Image-Icon" mask="url(#mask-4)" xlink:href="#path-3"></use>
                    </g>
                </g>
                <rect id="Rectangle-171-Copy-2" fill="#FFFFFF" x="161" y="25" width="48" height="42"></rect>
                <g id="Image-Icon-1x-Copy" transform="translate(115.000000, 41.000000)" stroke="#555555" stroke-width="0.8" fill="#EAE6D5">
                    <g id="Image-Icon-1x" transform="translate(0.000000, 2.000000)">
                        <use id="Image-Icon" mask="url(#mask-6)" xlink:href="#path-5"></use>
                    </g>
                </g>
                <g id="Image-Icon-1x-Copy-2" transform="translate(176.000000, 41.000000)" stroke="#555555" stroke-width="0.8" fill="#EAE6D5">
                    <g id="Image-Icon-1x" transform="translate(0.000000, 2.000000)">
                        <use id="Image-Icon" mask="url(#mask-8)" xlink:href="#path-7"></use>
                    </g>
                </g>
            </g>
        </g>
    </g>
</svg>