<?xml version="1.0" encoding="UTF-8"?>
<svg width="16px" height="16px" viewBox="0 0 16 16" version="1.1" xmlns="http://www.w3.org/2000/svg" xmlns:xlink="http://www.w3.org/1999/xlink">
    <!-- Generator: Sketch 41.2 (35397) - http://www.bohemiancoding.com/sketch -->
    <title>tag icon</title>
    <desc>Created with Sketch.</desc>
    <defs></defs>
    <g id="Page-1" stroke="none" stroke-width="1" fill="none" fill-rule="evenodd" fill-opacity="0.5">
        <g id="Landing-page" transform="translate(-914.000000, -4719.000000)" fill="#FFFFFF">
            <g id="News" transform="translate(230.000000, 4470.000000)">
                <g id="featured-article">
                    <g id="article-name-and-meta" transform="translate(681.000000, 133.000000)">
                        <g id="title" transform="translate(1.000000, 38.000000)">
                            <g id="meta" transform="translate(2.000000, 76.000000)">
                                <g id="tag-icon" transform="translate(0.000000, 2.000000)">
                                    <path d="M5.26133333,1.6768 C5.2112,1.62773333 5.144,1.60053333 5.07413333,1.60053333 L0.274133333,1.60053333 C0.126933333,1.60053333 0.008,1.72 0.008,1.8672 L0.008,6.40053333 C0.008,6.47146667 0.0357333333,6.53973333 0.0864,6.58933333 L9.5008,15.9232 C9.55146667,15.9728 9.6192,16.0005333 9.68906667,16.0005333 C9.7072,16.0005333 9.7248,15.9984 9.74293333,15.9946667 C9.8304,15.9765333 9.90346667,15.9157333 9.93653333,15.8330667 L11.2389333,12.5765333 L14.4949333,11.2741333 C14.5786667,11.2405333 14.6394667,11.1674667 14.6570667,11.0794667 C14.6752,10.9909333 14.6474667,10.8992 14.5829333,10.8362667 L5.26133333,1.6768 L5.26133333,1.6768 Z M3.30026667,5.64693333 C2.744,5.64693333 2.29173333,5.1952 2.29173333,4.63786667 C2.29173333,4.08106667 2.744,3.62933333 3.30026667,3.62933333 C3.85706667,3.62933333 4.30933333,4.08106667 4.30933333,4.63786667 C4.30933333,5.1952 3.85706667,5.64693333 3.30026667,5.64693333 L3.30026667,5.64693333 Z" id="Fill-1"></path>
                                    <path d="M15.7957333,9.08053333 L6.99573333,0.338666667 C6.9456,0.289066667 6.87786667,0.261333333 6.808,0.261333333 L2.008,0.261333333 C1.86026667,0.261333333 1.74133333,0.3808 1.74133333,0.528 C1.74133333,0.6752 1.86026667,0.794666667 2.008,0.794666667 L6.69813333,0.794666667 L15.1125333,9.15413333 L14.5146667,9.35306667 C14.3744,9.4 14.2992,9.55093333 14.3456,9.69066667 C14.3829333,9.80213333 14.4869333,9.87306667 14.5989333,9.87306667 C14.6266667,9.87306667 14.6549333,9.8688 14.6832,9.8592 L15.6922667,9.5232 C15.7797333,9.49386667 15.8464,9.4208 15.8672,9.33066667 C15.8885333,9.24053333 15.8613333,9.1456 15.7957333,9.08053333" id="Fill-2"></path>
                                </g>
                            </g>
                        </g>
                    </g>
                </g>
            </g>
        </g>
    </g>
</svg>