<?xml version="1.0" encoding="UTF-8"?>
<svg width="72px" height="60px" viewBox="0 0 72 60" version="1.1" xmlns="http://www.w3.org/2000/svg" xmlns:xlink="http://www.w3.org/1999/xlink">
    <!-- Generator: Sketch 41.2 (35397) - http://www.bohemiancoding.com/sketch -->
    <title>Bag</title>
    <desc>Created with Sketch.</desc>
    <defs>
        <path d="M35,20 C41.627417,20 47,15.5228475 47,10 C47,4.4771525 43.627417,0 35,0 C26.372583,8.80461551e-16 23,4.4771525 23,10 C23,15.5228475 28.372583,20 35,20 Z" id="path-1"></path>
        <mask id="mask-2" maskContentUnits="userSpaceOnUse" maskUnits="objectBoundingBox" x="0" y="0" width="24" height="20" fill="white">
            <use xlink:href="#path-1"></use>
        </mask>
        <path d="M0,26 C4.4408921e-16,20.6675913 2.67083657,9.84571776 2.67083657,9.84571776 C3.40491326,6.61721699 6.65111319,3.55856901 9.91645139,3.03426187 C9.91645139,3.03426187 27.3307335,0 36,0 C44.6692665,0 62.0997086,3.03681009 62.0997086,3.03681009 C65.3583496,3.56876519 68.6075139,6.61092239 69.3319421,9.85846283 C69.3319421,9.85846283 72,20.6675913 72,26 C72,31.3324087 69.3291634,42.1542822 69.3291634,42.1542822 C68.5950867,45.382783 65.3488868,48.441431 62.0835486,48.9657381 C62.0835486,48.9657381 44.6692665,52 36,52 C27.3307335,52 9.90029142,48.9631899 9.90029142,48.9631899 C6.64165045,48.4312348 3.3924861,45.3890776 2.66805792,42.1415372 C2.66805792,42.1415372 0,31.3324087 0,26 Z" id="path-3"></path>
        <path d="M0.249898813,30.000976 C0.0953009836,31.2900606 8.38871144e-17,32.493212 0,33.500488 C0,38.8328967 2.66805792,49.6420252 2.66805792,49.6420252 C3.3924861,52.8895656 6.64165045,55.9317228 9.90029142,56.4636779 C9.90029142,56.4636779 27.3307335,59.500488 36,59.500488 C44.6692665,59.500488 62.0835486,56.4662261 62.0835486,56.4662261 C65.3488868,55.941919 68.5950867,52.883271 69.3291634,49.6547702 C69.3291634,49.6547702 72,38.8328967 72,33.500488 C72,32.4926469 71.9046913,31.2891658 71.7501012,30 C71.086275,35.5351885 69.3291634,42.6547702 69.3291634,42.6547702 C68.5950867,45.883271 65.3488868,48.941919 62.0835486,49.4662261 C62.0835486,49.4662261 44.6692665,52.500488 36,52.500488 C27.3307335,52.500488 9.90029142,49.4636779 9.90029142,49.4636779 C6.64165045,48.9317228 3.3924861,45.8895656 2.66805792,42.6420252 C2.66805792,42.6420252 0.913233029,35.5326864 0.249898813,30.000976 Z" id="path-5"></path>
    </defs>
    <g id="Page-1" stroke="none" stroke-width="1" fill="none" fill-rule="evenodd">
        <g id="Summer-Color-Icons" transform="translate(-419.000000, -173.000000)">
            <g id="Bag" transform="translate(419.000000, 173.000000)">
                <use id="handle" stroke="#785037" mask="url(#mask-2)" stroke-width="6" xlink:href="#path-1"></use>
                <g id="bag" transform="translate(0.000000, 7.000000)">
                    <mask id="mask-4" fill="white">
                        <use xlink:href="#path-3"></use>
                    </mask>
                    <use fill="#E59768" xlink:href="#path-3"></use>
                    <rect id="belt" fill="#CA7C4D" mask="url(#mask-4)" x="13" y="0" width="7" height="57"></rect>
                    <rect id="belt" fill="#CA7C4D" mask="url(#mask-4)" x="52" y="0" width="7" height="57"></rect>
                </g>
                <mask id="mask-6" fill="white">
                    <use xlink:href="#path-5"></use>
                </mask>
                <use id="shadow" fill="#E1854E" xlink:href="#path-5"></use>
                <rect id="belt" fill="#CA7C4D" mask="url(#mask-6)" transform="translate(17.500000, 54.000000) rotate(-13.000000) translate(-17.500000, -54.000000) " x="14" y="49" width="7" height="10"></rect>
                <rect id="belt" fill="#CA7C4D" mask="url(#mask-6)" transform="translate(54.500000, 54.000000) scale(-1, 1) rotate(-13.000000) translate(-54.500000, -54.000000) " x="51" y="49" width="7" height="10"></rect>
                <rect id="white-card" fill="#FEFEFE" x="29" y="14" width="16" height="9" rx="2"></rect>
            </g>
        </g>
    </g>
</svg>