<?xml version="1.0" encoding="UTF-8"?>
<svg width="63px" height="70px" viewBox="0 0 63 70" version="1.1" xmlns="http://www.w3.org/2000/svg" xmlns:xlink="http://www.w3.org/1999/xlink">
    <!-- Generator: Sketch 41.2 (35397) - http://www.bohemiancoding.com/sketch -->
    <title>Palm</title>
    <desc>Created with Sketch.</desc>
    <defs>
        <path d="M15.4382158,28 C25.9642575,28 25.4486327,28 29.4382158,14 C33.4277989,-3.10862447e-15 29.4382159,2.03567682e-15 15.4382158,0 C1.43821576,-1.690744e-15 4.78456998,7.09635417 1.43821582,14 C-1.90813835,20.9036458 4.91217415,28 15.4382158,28 Z" id="path-1"></path>
    </defs>
    <g id="Page-1" stroke="none" stroke-width="1" fill="none" fill-rule="evenodd">
        <g id="Summer-Color-Icons" transform="translate(-295.000000, -168.000000)">
            <g id="Palm" transform="translate(295.000000, 167.000000)">
                <g id="Beach" transform="translate(30.000000, 43.000000)">
                    <mask id="mask-2" fill="white">
                        <use xlink:href="#path-1"></use>
                    </mask>
                    <use id="sand" fill="#FEE8C1" xlink:href="#path-1"></use>
                    <path d="M-6.31396484,24.3891302 C-6.31396484,24.3891302 0.906592117,15.0117395 7.21582031,18.711914 C8.6965024,19.58029 11.4498931,21.8943706 12.534668,24.38913 C18.2416992,37.5141299 30.5961914,18.7119141 30.5961914,18.7119141" id="water" stroke="#6BC9F1" stroke-width="4" mask="url(#mask-2)"></path>
                    <ellipse id="water" fill="#5BBBE4" mask="url(#mask-2)" cx="4.5" cy="26.5" rx="7.5" ry="7.5"></ellipse>
                </g>
                <g id="Palm-tree">
                    <path d="M33.1835938,33.6875 C33.1835938,33.6875 45.3046875,34.390625 45.3046875,55.4453125" id="Path-173" stroke="#E59768" stroke-width="4" stroke-linecap="round"></path>
                    <path d="M20.9921921,35.7613035 C25.7501958,35.3947888 30.9436501,34.7353071 30.9436501,34.7353071 C32.0314989,34.6037936 32.3682231,33.7921315 31.6643541,32.9482857 C31.6643541,32.9482857 25.347073,24 16.0135669,24 C6.68006073,24 0.362779619,32.9482857 0.362779619,32.9482857 C-0.3270354,33.8037169 -0.00636881863,34.60526 1.09760237,34.7369688 C1.09760237,34.7369688 2.70558711,34.9411772 4.95157091,35.1853711 L6.83023679,33.0246233 L7.87511909,35.4855689 C10.7066847,35.7578282 13.8370608,36 16.0135668,36 C16.4017747,36 16.8204145,35.9922856 17.2623647,35.9780617 L19.8302368,33.0246233 L20.9921921,35.7613035 Z" id="Combined-Shape" fill="#52DE9D"></path>
                    <path d="M50.9679575,31.457881 C55.7259612,31.0913663 60.9194155,30.4318845 60.9194155,30.4318845 C62.0072643,30.3003711 62.3439885,29.4887089 61.6401195,28.6448632 C61.6401195,28.6448632 55.3228384,19.6965774 45.9893322,19.6965774 C36.6558261,19.6965774 30.338545,28.6448632 30.338545,28.6448632 C29.64873,29.5002944 29.9693966,30.3018374 31.0733678,30.4335463 C31.0733678,30.4335463 32.6813525,30.6377546 34.9273363,30.8819486 L36.8060022,28.7212008 L37.8508845,31.1821463 C40.6824501,31.4544057 43.8128262,31.6965774 45.9893321,31.6965774 C46.3775401,31.6965774 46.7961799,31.688863 47.2381301,31.6746392 L49.8060022,28.7212008 L50.9679575,31.457881 Z" id="Combined-Shape" fill="#52DE9D" transform="translate(45.992518, 25.696577) scale(-1, 1) rotate(14.000000) translate(-45.992518, -25.696577) "></path>
                    <path d="M34.9921921,22.7613035 C39.7501958,22.3947888 44.9436501,21.7353071 44.9436501,21.7353071 C46.0314989,21.6037936 46.3682231,20.7921315 45.6643541,19.9482857 C45.6643541,19.9482857 39.347073,11 30.0135669,11 C20.6800607,11 14.3627796,19.9482857 14.3627796,19.9482857 C13.6729646,20.8037169 13.9936312,21.60526 15.0976024,21.7369688 C15.0976024,21.7369688 16.7055871,21.9411772 18.9515709,22.1853711 L20.8302368,20.0246233 L21.8751191,22.4855689 C24.7066847,22.7578282 27.8370608,23 30.0135668,23 C30.4017747,23 30.8204145,22.9922856 31.2623647,22.9780617 L33.8302368,20.0246233 L34.9921921,22.7613035 Z" id="Combined-Shape" fill="#52DE9D" transform="translate(30.016752, 17.000000) rotate(-89.000000) translate(-30.016752, -17.000000) "></path>
                    <path d="M31.7169749,50.7567128 C36.6927477,50.4103778 42.5615094,49.6651433 42.5615094,49.6651433 C43.6493583,49.5336299 43.9860824,48.7219678 43.2822134,47.878122 C43.2822134,47.878122 36.9649323,38.9298363 27.6314262,38.9298363 C18.29792,38.9298363 11.9806389,47.878122 11.9806389,47.878122 C11.2908239,48.7335532 11.6114905,49.5350962 12.7154617,49.6668051 C12.7154617,49.6668051 14.4880276,49.8919146 16.9105051,50.1520636 L17.9517639,48.9544596 L18.5318971,50.3208106 C21.5935535,50.6288965 25.205163,50.9298363 27.6314261,50.9298363 C28.130764,50.9298363 28.6804507,50.9170729 29.265331,50.8941107 L30.9517639,48.9544596 L31.7169749,50.7567128 Z" id="Combined-Shape" fill="#52DE9D" transform="translate(27.634612, 44.929836) rotate(-240.000000) translate(-27.634612, -44.929836) "></path>
                </g>
            </g>
        </g>
    </g>
</svg>