<?xml version="1.0" encoding="UTF-8"?>
<svg width="81px" height="57px" viewBox="0 0 81 57" version="1.1" xmlns="http://www.w3.org/2000/svg" xmlns:xlink="http://www.w3.org/1999/xlink">
    <!-- Generator: Sketch 41.2 (35397) - http://www.bohemiancoding.com/sketch -->
    <title>Shorts</title>
    <desc>Created with Sketch.</desc>
    <defs>
        <path d="M40.3614131,41.6213331 L31.4320213,57 C31.4320213,57 9.01365268e-09,53.6911383 4.30282138e-17,44.5046527 C-9.01365212e-09,35.3181671 16.2655638,0 16.2655638,0 C16.2655638,0 30.8022303,7.60760658 41,7.60760658 L40.9995588,7.65696187 C51.1940731,7.64697337 65.28125,4 65.28125,4 C65.28125,4 81,34.5517785 81,43.6458377 C81,52.7398969 45.0949739,56 45.0949739,56 L40.3614131,41.6213331 Z" id="path-1"></path>
        <filter x="-50%" y="-50%" width="200%" height="200%" filterUnits="objectBoundingBox" id="filter-3">
            <feOffset dx="-2" dy="-1" in="SourceAlpha" result="shadowOffsetInner1"></feOffset>
            <feComposite in="shadowOffsetInner1" in2="SourceAlpha" operator="arithmetic" k2="-1" k3="1" result="shadowInnerInner1"></feComposite>
            <feColorMatrix values="0 0 0 0 0.921662415   0 0 0 0 0.737912705   0 0 0 0 0.244925677  0 0 0 1 0" type="matrix" in="shadowInnerInner1"></feColorMatrix>
        </filter>
    </defs>
    <g id="Page-1" stroke="none" stroke-width="1" fill="none" fill-rule="evenodd">
        <g id="Summer-Color-Icons" transform="translate(-554.000000, -429.000000)">
            <g id="Shorts" transform="translate(554.000000, 429.000000)">
                <g id="Oval-58">
                    <mask id="mask-2" fill="white">
                        <use xlink:href="#path-1"></use>
                    </mask>
                    <g id="Mask">
                        <use fill="#FFD668" fill-rule="evenodd" xlink:href="#path-1"></use>
                        <use fill="black" fill-opacity="1" filter="url(#filter-3)" xlink:href="#path-1"></use>
                    </g>
                    <ellipse fill="#FF7166" mask="url(#mask-2)" cx="44" cy="0.5" rx="33" ry="11.5"></ellipse>
                </g>
                <path d="M35.6064453,9.9296875 C35.6064453,9.9296875 32.2705078,7.83496091 31.09375,12.7099609 C29.9169922,17.584961 36.7285156,22.2167967 29.3056641,23.4589844" id="shorts" stroke="#785037" stroke-width="2" stroke-linecap="round" stroke-linejoin="round"></path>
                <path d="M43.977043,9.9296875 C43.977043,9.9296875 40.6411055,7.83496091 39.4643477,12.7099609 C38.2875899,17.584961 44.1420821,15.6416013 41.1118086,19.0507812" id="shorts" stroke="#785037" stroke-width="2" stroke-linecap="round" stroke-linejoin="round" transform="translate(41.641354, 14.266502) scale(-1, 1) translate(-41.641354, -14.266502) "></path>
                <path d="M60.7177517,42.4488102 L57.7023302,44.0341111 C56.2385203,44.8036816 55.2787089,44.1049571 55.5580611,42.4762085 L56.1339554,39.1184872 L53.6944281,36.7405359 C52.510181,35.5861802 52.8781094,34.4574276 54.513466,34.2197964 L57.8848098,33.7299114 L59.3925206,30.6749558 C60.1244255,29.1919543 61.3116292,29.1930713 62.0429829,30.6749558 L63.5506937,33.7299114 L66.9220374,34.2197964 C68.5586267,34.4576067 68.9244305,35.5870497 67.7410754,36.7405359 L65.3015481,39.1184872 L65.8774424,42.4762085 C66.1570052,44.1061848 65.1958807,44.8031019 63.7331733,44.0341111 L60.7177517,42.4488102 Z" id="Star-1" fill="#FF7166" transform="translate(60.717725, 37.119862) rotate(-17.000000) translate(-60.717725, -37.119862) "></path>
            </g>
        </g>
    </g>
</svg>