<?xml version="1.0" encoding="UTF-8"?>
<svg width="71px" height="69px" viewBox="0 0 71 69" version="1.1" xmlns="http://www.w3.org/2000/svg" xmlns:xlink="http://www.w3.org/1999/xlink">
    <!-- Generator: Sketch 41.2 (35397) - http://www.bohemiancoding.com/sketch -->
    <title>Sun</title>
    <desc>Created with Sketch.</desc>
    <defs></defs>
    <g id="Page-1" stroke="none" stroke-width="1" fill="none" fill-rule="evenodd">
        <g id="Summer-Color-Icons" transform="translate(-161.000000, -168.000000)">
            <g id="Sun" transform="translate(161.000000, 168.000000)">
                <circle id="circle" fill="#FFD668" cx="35.5" cy="35.5" r="18.5"></circle>
                <path d="M53.6693789,34 C53.8863938,35.1333342 54,36.3034 54,37.5 C54,47.7172679 45.7172679,56 35.5,56 C25.2827321,56 17,47.7172679 17,37.5 C17,36.3034 17.1136062,35.1333342 17.3306211,34 C18.966606,42.5437336 26.4793321,49 35.5,49 C44.5206679,49 52.033394,42.5437336 53.6693789,34 Z" id="shadow" fill="#FBCB4B"></path>
                <path d="M33.7130917,1.5738165 C34.6999739,-0.39994785 36.3026314,-0.394737244 37.2869083,1.5738165 L41.2130917,9.4261835 C42.1999739,11.3999479 41.2055487,13 38.9999798,13 L32.0000202,13 C29.7908701,13 28.8026314,11.3947372 29.7869083,9.4261835 L33.7130917,1.5738165 Z M61.2725401,13.1240452 C63.4275081,12.6488665 64.4320438,13.8976444 63.5216157,15.9014222 L59.8900077,23.8942946 C58.9771698,25.9033762 57.1078836,26.1375081 55.7198741,24.4234591 L51.3146569,18.9834688 C49.9243936,17.2666367 50.5499983,15.4884064 52.6992774,15.0144822 L61.2725401,13.1240452 Z M69.4628239,41.9289777 C71.1640006,43.3345665 70.7984041,44.8949758 68.6588901,45.4111975 L60.1245796,47.4703549 C57.9794026,47.987943 56.6440566,46.6590714 57.1402017,44.5100311 L58.71485,37.6894801 C59.2118006,35.5369503 60.9982259,34.9351456 62.6949117,36.3370238 L69.4628239,41.9289777 Z M52.0606421,66.2250518 C52.0388796,68.4316801 50.5961365,69.1295556 48.8485171,67.7917098 L41.8774356,62.4551747 C40.1251905,61.1137877 40.3175573,59.239743 42.2999095,58.2728853 L48.5914314,55.204305 C50.5770024,54.2358773 52.1689264,55.2454626 52.1472213,57.4462655 L52.0606421,66.2250518 Z M22.1514829,67.7917098 C20.3992377,69.1330968 18.9610629,68.4258548 18.9393579,66.2250518 L18.8527787,57.4462655 C18.8310162,55.2396372 20.4262164,54.2374472 22.4085686,55.204305 L28.7000905,58.2728853 C30.6856616,59.241313 30.8701837,61.1173289 29.1225644,62.4551747 L22.1514829,67.7917098 Z M2.3411099,45.4111975 C0.195932818,44.8936094 -0.159509606,43.3308559 1.53717611,41.9289777 L8.30508833,36.3370238 C10.006265,34.931435 11.789005,35.5404398 12.28515,37.6894801 L13.8597983,44.5100311 C14.356749,46.6625609 13.0149343,47.9865766 10.8754204,47.4703549 L2.3411099,45.4111975 Z M7.47838434,15.9014222 C6.56554642,13.8923406 7.57818083,12.650121 9.72745994,13.1240452 L18.3007226,15.0144822 C20.4556906,15.4896609 21.0733526,17.2694199 19.6853431,18.9834688 L15.2801259,24.4234591 C13.8898626,26.1402913 12.0204204,25.8980724 11.1099923,23.8942946 L7.47838434,15.9014222 Z" id="rais" fill="#FFD668"></path>
            </g>
        </g>
    </g>
</svg>